<svg width="25" height="26" viewBox="0 0 25 26" fill="none" xmlns="http://www.w3.org/2000/svg">
<g clip-path="url(#clip0_8_2)">
<path d="M17.474 5.25814L21.3889 9.17307C21.5538 9.338 21.5538 9.6071 21.3889 9.77203L11.9097 19.2512L7.88194 19.6982C7.34375 19.759 6.88802 19.3033 6.94879 18.7651L7.39583 14.7373L16.875 5.25814C17.0399 5.09321 17.309 5.09321 17.474 5.25814ZM24.5052 4.26421L22.3872 2.14616C21.7274 1.48644 20.6554 1.48644 19.9913 2.14616L18.4549 3.68262C18.2899 3.84755 18.2899 4.11664 18.4549 4.28158L22.3698 8.19651C22.5347 8.36144 22.8038 8.36144 22.9688 8.19651L24.5052 6.66005C25.1649 5.99599 25.1649 4.92394 24.5052 4.26421V4.26421ZM16.6667 16.6731V21.0915H2.77778V7.20258H12.7517C12.8906 7.20258 13.0208 7.14616 13.1207 7.05067L14.8568 5.31456C15.1866 4.9847 14.9523 4.4248 14.4878 4.4248H2.08333C0.93316 4.4248 4.76837e-07 5.35796 4.76837e-07 6.50814V21.7859C4.76837e-07 22.9361 0.93316 23.8692 2.08333 23.8692H17.3611C18.5113 23.8692 19.4444 22.9361 19.4444 21.7859V14.937C19.4444 14.4725 18.8845 14.2425 18.5547 14.568L16.8186 16.3041C16.7231 16.404 16.6667 16.5342 16.6667 16.6731Z" fill="black"/>
</g>
<defs>
<clipPath id="clip0_8_2">
<rect width="25" height="25" fill="white" transform="translate(0 0.258179)"/>
</clipPath>
</defs>
</svg>
